<svg width="13" height="25" viewBox="0 0 13 25" fill="none" xmlns="http://www.w3.org/2000/svg">
<path d="M12.9927 11.0257L12.6809 13.5678C12.6281 13.9925 12.2739 14.3119 11.8537 14.3119H7.79824V24.9407C7.37056 24.9799 6.93722 25 6.49916 25C5.51944 25 4.56326 24.9005 3.63912 24.7112V14.3119H0.520008C0.233627 14.3119 0 14.0738 0 13.7821V10.601C0 10.3093 0.233627 10.0712 0.520008 10.0712H3.63912V5.30051C3.63912 2.37289 5.96691 0 8.8392 0H12.4783C12.7647 0 12.9983 0.238149 12.9983 0.529859V3.71093C12.9983 4.00264 12.7647 4.24079 12.4783 4.24079H9.87828C8.72993 4.24079 7.79919 5.18956 7.79919 6.36119V10.0721H12.1665C12.6677 10.0721 13.0549 10.5197 12.9936 11.0266L12.9927 11.0257Z" fill="white"/>
</svg>
