<svg width="20" height="21" viewBox="0 0 20 21" fill="none" xmlns="http://www.w3.org/2000/svg">
<path d="M15.084 0.529297H4.79937C2.14927 0.529297 0 2.68101 0 5.33412V15.6304C0 18.2836 2.14927 20.4353 4.79937 20.4353H15.084C17.7341 20.4353 19.8834 18.2836 19.8834 15.6304V5.33412C19.8834 2.68101 17.7341 0.529297 15.084 0.529297ZM18.1691 15.2866C18.1691 17.1814 16.6332 18.7191 14.7406 18.7191H5.14184C3.24918 18.7191 1.71332 17.1814 1.71332 15.2866V5.67698C1.71332 3.78218 3.24918 2.24456 5.14184 2.24456H14.7406C16.6332 2.24456 18.1691 3.78218 18.1691 5.67698V15.2866Z" fill="white"/>
<path d="M9.95076 5.334C7.11274 5.334 4.80893 7.64043 4.80893 10.4817C4.80893 13.3229 7.11274 15.6294 9.95076 15.6294C12.7888 15.6294 15.0926 13.3229 15.0926 10.4817C15.0926 7.64043 12.7888 5.334 9.95076 5.334ZM9.95076 13.9141C8.06193 13.9141 6.52223 12.3727 6.52223 10.4817C6.52223 8.5907 8.06193 7.04926 9.95076 7.04926C11.8396 7.04926 13.3793 8.5907 13.3793 10.4817C13.3793 12.3727 11.8396 13.9141 9.95076 13.9141Z" fill="white"/>
<path d="M15.4359 6.02081C16.0039 6.02081 16.4643 5.55987 16.4643 4.99127C16.4643 4.42267 16.0039 3.96173 15.4359 3.96173C14.868 3.96173 14.4076 4.42267 14.4076 4.99127C14.4076 5.55987 14.868 6.02081 15.4359 6.02081Z" fill="white"/>
</svg>
